<?xml version="1.0" encoding="utf-8"?>
<mxfile><diagram id="m1c5xFg46kZD4bizrOMW" name="Page-1"><mxGraphModel dx="265" dy="312" grid="1" gridSize="10" guides="1" tooltips="1" connect="1" arrows="1" fold="1" page="1" pageScale="1" pageWidth="520" pageHeight="300" background="#ffffff" math="0" shadow="0"><root><mxCell id="0"></mxCell><mxCell id="1" parent="0"></mxCell><mxCell id="3" value="PGA" style="ellipse;whiteSpace=wrap;html=1;strokeColor=#000000;strokeWidth=1;" parent="1" vertex="1"><mxGeometry x="40" y="50" width="40" height="20" as="geometry"></mxGeometry></mxCell><mxCell id="5" value="BPGA" style="ellipse;whiteSpace=wrap;html=1;strokeColor=#000000;strokeWidth=1;" parent="1" vertex="1"><mxGeometry x="120" y="50" width="40" height="20" as="geometry"></mxGeometry></mxCell><mxCell id="10" value="GAP" style="ellipse;whiteSpace=wrap;html=1;strokeColor=#000000;strokeWidth=1;" parent="1" vertex="1"><mxGeometry x="200" y="50" width="40" height="20" as="geometry"></mxGeometry></mxCell><mxCell id="12" value="DHAP" style="ellipse;whiteSpace=wrap;html=1;strokeColor=#000000;strokeWidth=1;" parent="1" vertex="1"><mxGeometry x="360" y="110" width="40" height="20" as="geometry"></mxGeometry></mxCell><mxCell id="14" value="FBP" style="ellipse;whiteSpace=wrap;html=1;strokeColor=#000000;strokeWidth=1;" parent="1" vertex="1"><mxGeometry x="440" y="150" width="40" height="20" as="geometry"></mxGeometry></mxCell><mxCell id="16" value="RUBP" style="ellipse;whiteSpace=wrap;html=1;strokeColor=#000000;strokeWidth=1;" parent="1" vertex="1"><mxGeometry x="40" y="150" width="40" height="20" as="geometry"></mxGeometry></mxCell><mxCell id="18" value="CO2" style="ellipse;whiteSpace=wrap;html=1;strokeColor=#000000;strokeWidth=1;" parent="1" vertex="1"><mxGeometry x="120" y="110" width="40" height="20" as="geometry"></mxGeometry></mxCell><mxCell id="20" value='&lt;font style="font-size: 8px"&gt;Starch&lt;/font&gt;' style="ellipse;whiteSpace=wrap;html=1;strokeColor=#000000;strokeWidth=1;verticalAlign=middle;" parent="1" vertex="1"><mxGeometry x="440" y="230" width="40" height="20" as="geometry"></mxGeometry></mxCell><mxCell id="23" value="F6P" style="ellipse;whiteSpace=wrap;html=1;strokeColor=#000000;strokeWidth=1;" parent="1" vertex="1"><mxGeometry x="440" y="190" width="40" height="20" as="geometry"></mxGeometry></mxCell><mxCell id="25" value="RU5P" style="ellipse;whiteSpace=wrap;html=1;strokeColor=#000000;strokeWidth=1;" parent="1" vertex="1"><mxGeometry x="40" y="190" width="40" height="20" as="geometry"></mxGeometry></mxCell><mxCell id="27" value="R5P" style="ellipse;whiteSpace=wrap;html=1;strokeColor=#000000;strokeWidth=1;" parent="1" vertex="1"><mxGeometry x="120" y="230" width="40" height="20" as="geometry"></mxGeometry></mxCell><mxCell id="29" value="X5P" style="ellipse;whiteSpace=wrap;html=1;strokeColor=#000000;strokeWidth=1;" parent="1" vertex="1"><mxGeometry x="120" y="150" width="40" height="20" as="geometry"></mxGeometry></mxCell><mxCell id="31" value="E4P" style="ellipse;whiteSpace=wrap;html=1;strokeColor=#000000;strokeWidth=1;" parent="1" vertex="1"><mxGeometry x="360" y="230" width="40" height="20" as="geometry"></mxGeometry></mxCell><mxCell id="33" value="SBP" style="ellipse;whiteSpace=wrap;html=1;strokeColor=#000000;strokeWidth=1;" parent="1" vertex="1"><mxGeometry x="280" y="190" width="40" height="20" as="geometry"></mxGeometry></mxCell><mxCell id="36" value="S7P" style="ellipse;whiteSpace=wrap;html=1;strokeColor=#000000;strokeWidth=1;" parent="1" vertex="1"><mxGeometry x="200" y="190" width="40" height="20" as="geometry"></mxGeometry></mxCell><object label="" reaction="vPGA_kinase" id="2"><mxCell style="edgeStyle=orthogonalEdgeStyle;curved=1;rounded=0;orthogonalLoop=1;jettySize=auto;html=1;exitX=1;exitY=0.5;exitDx=0;exitDy=0;strokeWidth=5.0;fillColor=#008a00;strokeColor=#005700" parent="1" source="3" target="5" edge="1"><mxGeometry x="40" y="50" as="geometry"></mxGeometry></mxCell></object><object label="" reaction="v10" id="42"><mxCell style="edgeStyle=orthogonalEdgeStyle;rounded=0;orthogonalLoop=1;jettySize=auto;html=1;exitX=1;exitY=1;exitDx=0;exitDy=0;entryX=1;entryY=0.5;entryDx=0;entryDy=0;curved=1;strokeColor=#000000;strokeWidth=1.4943794576974707" edge="1" parent="1" source="10" target="29"><mxGeometry relative="1" as="geometry"><Array as="points"><mxPoint x="234" y="160"></mxPoint></Array></mxGeometry></mxCell></object><object label="" reaction="vBPGA_dehydrogenase" id="4"><mxCell style="edgeStyle=orthogonalEdgeStyle;curved=1;rounded=0;orthogonalLoop=1;jettySize=auto;html=1;entryX=0;entryY=0.5;entryDx=0;entryDy=0;strokeWidth=4.999999959634516;fillColor=#1ba1e2;strokeColor=#006EAF;exitX=1;exitY=0.5;exitDx=0;exitDy=0" parent="1" source="5" target="10" edge="1"><mxGeometry x="40" y="50" as="geometry"><mxPoint x="180" y="60" as="sourcePoint"></mxPoint></mxGeometry></mxCell></object><object label="" reaction="vTPI" id="6"><mxCell style="edgeStyle=orthogonalEdgeStyle;curved=1;rounded=0;orthogonalLoop=1;jettySize=auto;html=1;exitX=1;exitY=0.5;exitDx=0;exitDy=0;strokeWidth=2.5581903604290614;strokeColor=#000000" parent="1" source="10" target="12" edge="1"><mxGeometry x="40" y="50" as="geometry"></mxGeometry></mxCell></object><object label="" reaction="vAldolase" id="7"><mxCell style="edgeStyle=orthogonalEdgeStyle;curved=1;rounded=0;orthogonalLoop=1;jettySize=auto;html=1;exitX=1;exitY=0.5;exitDx=0;exitDy=0;entryX=0.5;entryY=0;entryDx=0;entryDy=0;strokeWidth=1.7329710338983026;strokeColor=#000000" parent="1" source="10" target="14" edge="1"><mxGeometry x="40" y="50" as="geometry"></mxGeometry></mxCell></object><object label="" reaction="vAldolase" id="39"><mxCell style="edgeStyle=orthogonalEdgeStyle;curved=1;rounded=0;orthogonalLoop=1;jettySize=auto;html=1;exitX=1;exitY=0.5;exitDx=0;exitDy=0;entryX=0.5;entryY=0;entryDx=0;entryDy=0;strokeColor=#000000;strokeWidth=1.7329710338983026" parent="1" source="12" target="14" edge="1"><mxGeometry x="40" y="50" as="geometry"></mxGeometry></mxCell></object><object label="" reaction="vRuBisCO" id="15"><mxCell style="edgeStyle=orthogonalEdgeStyle;curved=1;rounded=0;orthogonalLoop=1;jettySize=auto;html=1;exitX=0.5;exitY=0;exitDx=0;exitDy=0;entryX=0.5;entryY=1;entryDx=0;entryDy=0;strokeWidth=2.9603215251422856;strokeColor=#000000" parent="1" source="16" target="3" edge="1"><mxGeometry x="40" y="50" as="geometry"></mxGeometry></mxCell></object><object label="" reaction="vRuBisCO" id="17"><mxCell style="edgeStyle=orthogonalEdgeStyle;rounded=0;orthogonalLoop=1;jettySize=auto;html=1;exitX=0;exitY=0.5;exitDx=0;exitDy=0;strokeWidth=2.9603215251422856;curved=1;entryX=0.5;entryY=1;entryDx=0;entryDy=0;strokeColor=#000000" parent="1" source="18" target="3" edge="1"><mxGeometry x="40" y="50" as="geometry"><Array as="points"><mxPoint x="60" y="120"></mxPoint></Array></mxGeometry></mxCell></object><object label="" reaction="vFBPase" id="13"><mxCell style="edgeStyle=orthogonalEdgeStyle;rounded=0;orthogonalLoop=1;jettySize=auto;html=1;exitX=0.5;exitY=1;exitDx=0;exitDy=0;entryX=0.5;entryY=0;entryDx=0;entryDy=0;strokeColor=#000000;curved=1;strokeWidth=1.7329710339426176" parent="1" source="14" target="23" edge="1"><mxGeometry x="40" y="50" as="geometry"></mxGeometry></mxCell></object><object label="" reaction="vStarch" id="19"><mxCell style="edgeStyle=orthogonalEdgeStyle;curved=1;rounded=0;orthogonalLoop=1;jettySize=auto;html=1;entryX=0.5;entryY=0;entryDx=0;entryDy=0;strokeWidth=1.0;fillColor=#008a00;strokeColor=#005700;exitX=0.5;exitY=1;exitDx=0;exitDy=0" parent="1" source="23" target="20" edge="1"><mxGeometry x="40" y="50" as="geometry"><mxPoint x="580" y="55" as="sourcePoint"></mxPoint></mxGeometry></mxCell></object><object label="" reaction="v13" id="24"><mxCell style="edgeStyle=orthogonalEdgeStyle;rounded=0;orthogonalLoop=1;jettySize=auto;html=1;exitX=0.5;exitY=0;exitDx=0;exitDy=0;curved=1;strokeColor=#005700;strokeWidth=2.9603215251422847" parent="1" source="25" target="16" edge="1"><mxGeometry x="40" y="50" as="geometry"></mxGeometry></mxCell></object><object label="" reaction="v11" id="26"><mxCell style="edgeStyle=orthogonalEdgeStyle;rounded=0;orthogonalLoop=1;jettySize=auto;html=1;exitX=0;exitY=0.5;exitDx=0;exitDy=0;entryX=1;entryY=0.5;entryDx=0;entryDy=0;strokeColor=#000000;curved=1;strokeWidth=1.4943794535358736" parent="1" source="27" target="25" edge="1"><mxGeometry x="40" y="50" as="geometry"></mxGeometry></mxCell></object><object label="" reaction="v12" id="28"><mxCell style="edgeStyle=orthogonalEdgeStyle;rounded=0;orthogonalLoop=1;jettySize=auto;html=1;exitX=0;exitY=0.5;exitDx=0;exitDy=0;entryX=1;entryY=0.5;entryDx=0;entryDy=0;strokeColor=#000000;curved=1;strokeWidth=2.2273504904177326" parent="1" source="29" target="25" edge="1"><mxGeometry x="40" y="50" as="geometry"></mxGeometry></mxCell></object><object label="" reaction="vF6P_Transketolase" id="9"><mxCell style="edgeStyle=orthogonalEdgeStyle;curved=1;rounded=0;orthogonalLoop=1;jettySize=auto;html=1;exitX=0.5;exitY=1;exitDx=0;exitDy=0;entryX=1;entryY=0.5;entryDx=0;entryDy=0;strokeColor=#000000;strokeWidth=1.49437945852979" parent="1" source="10" target="29" edge="1"><mxGeometry x="40" y="50" as="geometry"></mxGeometry></mxCell></object><object label="" reaction="vF6P_Transketolase" id="22"><mxCell style="edgeStyle=orthogonalEdgeStyle;curved=1;rounded=0;orthogonalLoop=1;jettySize=auto;html=1;exitX=0;exitY=0.5;exitDx=0;exitDy=0;strokeColor=#000000;entryX=1;entryY=0.5;entryDx=0;entryDy=0;strokeWidth=1.49437945852979" parent="1" source="23" target="29" edge="1"><mxGeometry x="40" y="50" as="geometry"><Array as="points"><mxPoint x="390" y="200"></mxPoint><mxPoint x="390" y="160"></mxPoint><mxPoint x="290" y="160"></mxPoint></Array><mxPoint x="200" y="160" as="targetPoint"></mxPoint></mxGeometry></mxCell></object><object label="" reaction="vF6P_Transketolase" id="21"><mxCell style="edgeStyle=orthogonalEdgeStyle;curved=1;rounded=0;orthogonalLoop=1;jettySize=auto;html=1;exitX=0;exitY=0.5;exitDx=0;exitDy=0;entryX=1;entryY=0.5;entryDx=0;entryDy=0;strokeColor=#000000;strokeWidth=1.49437945852979" parent="1" source="23" target="31" edge="1"><mxGeometry x="40" y="50" as="geometry"></mxGeometry></mxCell></object><object label="" reaction="v8" id="38"><mxCell style="edgeStyle=orthogonalEdgeStyle;curved=1;rounded=0;orthogonalLoop=1;jettySize=auto;html=1;exitX=0.5;exitY=1;exitDx=0;exitDy=0;entryX=1;entryY=0.5;entryDx=0;entryDy=0;strokeColor=#000000;strokeWidth=1.4943794576974707" parent="1" source="12" target="33" edge="1"><mxGeometry x="40" y="50" as="geometry"></mxGeometry></mxCell></object><object label="" reaction="v8" id="30"><mxCell style="edgeStyle=orthogonalEdgeStyle;curved=1;rounded=0;orthogonalLoop=1;jettySize=auto;html=1;exitX=0;exitY=0.5;exitDx=0;exitDy=0;entryX=1;entryY=0.5;entryDx=0;entryDy=0;strokeColor=#000000;strokeWidth=1.4943794576974707" parent="1" source="31" target="33" edge="1"><mxGeometry x="40" y="50" as="geometry"></mxGeometry></mxCell></object><object label="" reaction="v10" id="34"><mxCell style="edgeStyle=orthogonalEdgeStyle;curved=1;rounded=0;orthogonalLoop=1;jettySize=auto;html=1;exitX=0;exitY=0.5;exitDx=0;exitDy=0;entryX=1;entryY=0.5;entryDx=0;entryDy=0;strokeColor=#000000;strokeWidth=1.4943794576974707" parent="1" source="36" target="27" edge="1"><mxGeometry x="40" y="50" as="geometry"><Array as="points"><mxPoint x="180" y="200"></mxPoint><mxPoint x="180" y="240"></mxPoint></Array></mxGeometry></mxCell></object><object label="" reaction="v10" id="35"><mxCell style="edgeStyle=orthogonalEdgeStyle;curved=1;rounded=0;orthogonalLoop=1;jettySize=auto;html=1;exitX=0;exitY=0.5;exitDx=0;exitDy=0;entryX=1;entryY=0.5;entryDx=0;entryDy=0;strokeColor=#000000;strokeWidth=1.4943794576974707" parent="1" source="36" target="29" edge="1"><mxGeometry x="40" y="50" as="geometry"><Array as="points"><mxPoint x="180" y="200"></mxPoint><mxPoint x="180" y="160"></mxPoint></Array></mxGeometry></mxCell></object><object label="" reaction="v9" id="32"><mxCell style="edgeStyle=orthogonalEdgeStyle;curved=1;rounded=0;orthogonalLoop=1;jettySize=auto;html=1;exitX=0;exitY=0.5;exitDx=0;exitDy=0;entryX=1;entryY=0.5;entryDx=0;entryDy=0;strokeColor=#000000;strokeWidth=1.4943794572558586" parent="1" source="33" target="36" edge="1"><mxGeometry x="40" y="50" as="geometry"></mxGeometry></mxCell></object></root></mxGraphModel></diagram></mxfile>
